<svg xmlns="http://www.w3.org/2000/svg" xmlns:xlink="http://www.w3.org/1999/xlink" width="469.138" height="469.089" viewBox="0 0 469.138 469.089"><defs><style>.a{opacity:0.3;}.b{fill:#223d6a;}.b,.c,.d,.e,.f,.g{fill-rule:evenodd;}.c{fill:url(#a);}.d{fill:#3f5f96;}.e{fill:#02edab;}.f{fill:#243c64;opacity:0.214;}.g{mix-blend-mode:multiply;isolation:isolate;fill:url(#b);}</style><linearGradient id="a" x1="-25.957" y1="137.132" x2="-26.805" y2="138.425" gradientUnits="objectBoundingBox"><stop offset="0" stop-color="#ff9e15"/><stop offset="0.699" stop-color="#ef184b"/></linearGradient><linearGradient id="b" x1="-1.458" y1="10.994" x2="-2.371" y2="12.385" gradientUnits="objectBoundingBox"><stop offset="0.25" stop-color="#ededed"/><stop offset="1" stop-color="#8d00b7"/></linearGradient></defs><g class="a" transform="translate(-1026.862 -1181.072)"><g transform="translate(1026.862 1181.072)"><path class="b" d="M505.753,354.641,293.221,215.159V82.188L505.753,221.669Z" transform="translate(-36.615 114.448)"/><path class="c" d="M231.668,96.65,214.237,85.21V78.554l27.575,18.1Z" transform="translate(-109.286 111.105)"/><path class="d" d="M568.953,333.84H541.721L224.531,125.675V4.605l344.422,226.04Z" transform="translate(-99.815 43.066)"/><path class="e" d="M189.183,9.567l50.894,33.407V62.4l-80.5-52.837Z" transform="translate(-159.577 47.632)"/><path class="e" d="M235.99-3.035l13.329,8.744V10.8L228.24-3.035Z" transform="translate(-96.403 36.037)"/><path class="f" d="M501.347,302.455,298.01,169.012V-20.223L501.347,113.228Z" transform="translate(-32.209 20.223)"/></g><path class="g" d="M515.18,236.673,232.7,51.289H348.058L515.18,160.961Z" transform="translate(980.82 1313.775)"/></g></svg>