<svg xmlns="http://www.w3.org/2000/svg" width="62.899" height="19.782" viewBox="0 0 62.899 19.782"><defs><style>.a{fill:#4285f4;}.b{fill:#ea4335;}.c{fill:#fbbc05;}.d{fill:#34a853;}</style></defs><g transform="translate(-0.11)"><path class="a" d="M7.966,7.047V9.164h5.059a4.487,4.487,0,0,1-1.153,2.667A5.18,5.18,0,0,1,7.966,13.38a5.553,5.553,0,0,1-5.55-5.627,5.553,5.553,0,0,1,5.55-5.627A5.38,5.38,0,0,1,11.778,3.64l1.489-1.489A7.308,7.308,0,0,0,7.966,0,7.852,7.852,0,0,0,.11,7.744a7.852,7.852,0,0,0,7.856,7.744,7.1,7.1,0,0,0,5.4-2.168A7,7,0,0,0,15.2,8.372a6.8,6.8,0,0,0-.112-1.325Z"/><path class="b" d="M24.186,6.19a4.926,4.926,0,0,0-5.016,5,5.016,5.016,0,0,0,10.033,0A4.926,4.926,0,0,0,24.186,6.19Zm0,8.028a2.891,2.891,0,0,1-2.822-3.029,2.829,2.829,0,1,1,5.645,0A2.891,2.891,0,0,1,24.186,14.218Z" transform="translate(-2.66 -0.864)"/><path class="a" d="M52.383,7.309h-.077A3.465,3.465,0,0,0,49.672,6.19a4.86,4.86,0,0,0-4.672,5,4.872,4.872,0,0,0,4.672,5,3.414,3.414,0,0,0,2.633-1.136h.077v.7c0,1.91-1.024,2.934-2.667,2.934A2.772,2.772,0,0,1,47.194,16.9l-1.91.792a4.762,4.762,0,0,0,4.431,2.951c2.573,0,4.75-1.514,4.75-5.206V6.448H52.383Zm-2.521,6.909a2.8,2.8,0,0,1-2.667-3.029A2.784,2.784,0,0,1,49.862,8.16a2.815,2.815,0,0,1,2.667,3.046A2.784,2.784,0,0,1,49.862,14.218Z" transform="translate(-6.264 -0.864)"/><path class="c" d="M37.186,6.19a4.926,4.926,0,0,0-5.016,5,5.016,5.016,0,0,0,10.033,0A4.926,4.926,0,0,0,37.186,6.19Zm0,8.028a2.891,2.891,0,0,1-2.822-3.029,2.829,2.829,0,1,1,5.645,0A2.891,2.891,0,0,1,37.186,14.218Z" transform="translate(-4.474 -0.864)"/><path class="d" d="M58,.24h2.16V15.358H58Z" transform="translate(-8.079 -0.033)"/><path class="b" d="M67.456,14.218A2.545,2.545,0,0,1,65.03,12.7l6.686-2.762-.224-.568A4.642,4.642,0,0,0,67.215,6.19a4.75,4.75,0,0,0-4.715,5,4.887,4.887,0,0,0,4.956,5,4.987,4.987,0,0,0,4.165-2.211l-1.7-1.136a2.862,2.862,0,0,1-2.461,1.377ZM67.3,8.066a1.977,1.977,0,0,1,1.893,1.1l-4.517,1.867A2.716,2.716,0,0,1,67.3,8.066Z" transform="translate(-8.707 -0.864)"/></g></svg>